<?xml version="1.0" standalone="no"?><!-- Generator: Gravit.io --><svg xmlns="http://www.w3.org/2000/svg" xmlns:xlink="http://www.w3.org/1999/xlink" style="isolation:isolate" width="208" height="224"><path d=" M 128 16 L 101 30 L 66 19 L 94 5 L 128 16 Z " fill="rgb(216,216,0)" stroke-width="0.5" stroke="rgb(255,255,0)" stroke-linejoin="miter" stroke-linecap="butt"/><path d=" M 165 27 L 139 43 L 101 30 L 128 16 L 165 27 Z " fill="rgb(216,216,0)" stroke-width="0.5" stroke="rgb(255,255,0)" stroke-linejoin="miter" stroke-linecap="butt"/><path d=" M 101 30 L 72 47 L 36 34 L 66 19 L 101 30 Z " fill="rgb(216,216,0)" stroke-width="0.5" stroke="rgb(255,255,0)" stroke-linejoin="miter" stroke-linecap="butt"/><path d=" M 204 39 L 179 56 L 139 43 L 165 27 L 204 39 Z " fill="rgb(216,216,0)" stroke-width="0.5" stroke="rgb(255,255,0)" stroke-linejoin="miter" stroke-linecap="butt"/><path d=" M 139 43 L 110 60 L 72 47 L 101 30 L 139 43 Z " fill="rgb(216,216,0)" stroke-width="0.5" stroke="rgb(255,255,0)" stroke-linejoin="miter" stroke-linecap="butt"/><path d=" M 72 47 L 40 64 L 4 50 L 36 34 L 72 47 Z " fill="rgb(216,216,0)" stroke-width="0.5" stroke="rgb(255,255,0)" stroke-linejoin="miter" stroke-linecap="butt"/><path d=" M 179 56 L 151 74 L 110 60 L 139 43 L 179 56 Z " fill="rgb(216,216,0)" stroke-width="0.5" stroke="rgb(255,255,0)" stroke-linejoin="miter" stroke-linecap="butt"/><path d=" M 110 60 L 79 78 L 40 64 L 72 47 L 110 60 Z " fill="rgb(216,216,0)" stroke-width="0.5" stroke="rgb(255,255,0)" stroke-linejoin="miter" stroke-linecap="butt"/><path d=" M 151 74 L 120 93 L 79 78 L 110 60 L 151 74 Z " fill="rgb(216,216,0)" stroke-width="0.5" stroke="rgb(255,255,0)" stroke-linejoin="miter" stroke-linecap="butt"/><path d=" M 197 157 L 173 177 L 175 138 L 199 120 L 197 157 Z " fill="rgb(0,0,218)" stroke-width="0.5" stroke="rgb(0,14,144)" stroke-linejoin="miter" stroke-linecap="butt"/><path d=" M 199 120 L 175 138 L 176 98 L 202 80 L 199 120 Z " fill="rgb(0,0,218)" stroke-width="0.5" stroke="rgb(0,14,144)" stroke-linejoin="miter" stroke-linecap="butt"/><path d=" M 173 177 L 147 198 L 148 159 L 175 138 L 173 177 Z " fill="rgb(0,0,218)" stroke-width="0.5" stroke="rgb(0,14,144)" stroke-linejoin="miter" stroke-linecap="butt"/><path d=" M 202 80 L 176 98 L 179 56 L 204 39 L 202 80 Z " fill="rgb(0,0,218)" stroke-width="0.5" stroke="rgb(0,14,144)" stroke-linejoin="miter" stroke-linecap="butt"/><path d=" M 175 138 L 148 159 L 149 117 L 176 98 L 175 138 Z " fill="rgb(0,0,218)" stroke-width="0.5" stroke="rgb(0,14,144)" stroke-linejoin="miter" stroke-linecap="butt"/><path d=" M 147 198 L 119 221 L 119 181 L 148 159 L 147 198 Z " fill="rgb(0,0,218)" stroke-width="0.5" stroke="rgb(0,14,144)" stroke-linejoin="miter" stroke-linecap="butt"/><path d=" M 176 98 L 149 117 L 151 74 L 179 56 L 176 98 Z " fill="rgb(0,0,218)" stroke-width="0.5" stroke="rgb(0,14,144)" stroke-linejoin="miter" stroke-linecap="butt"/><path d=" M 148 159 L 119 181 L 120 138 L 149 117 L 148 159 Z " fill="rgb(0,0,218)" stroke-width="0.5" stroke="rgb(0,14,144)" stroke-linejoin="miter" stroke-linecap="butt"/><path d=" M 149 117 L 120 138 L 120 93 L 151 74 L 149 117 Z " fill="rgb(0,0,218)" stroke-width="0.5" stroke="rgb(0,14,144)" stroke-linejoin="miter" stroke-linecap="butt"/><path d=" M 9 133 L 7 93 L 42 107 L 44 148 L 9 133 Z " fill="rgb(231,0,0)" stroke-width="0.5" stroke="rgb(255,34,34)" stroke-linejoin="miter" stroke-linecap="butt"/><path d=" M 46 186 L 44 148 L 80 164 L 81 203 L 46 186 Z " fill="rgb(231,0,0)" stroke-width="0.5" stroke="rgb(255,34,34)" stroke-linejoin="miter" stroke-linecap="butt"/><path d=" M 12 170 L 9 133 L 44 148 L 46 186 L 12 170 Z " fill="rgb(231,0,0)" stroke-width="0.5" stroke="rgb(255,34,34)" stroke-linejoin="miter" stroke-linecap="butt"/><path d=" M 7 93 L 4 50 L 40 64 L 42 107 L 7 93 Z " fill="rgb(231,0,0)" stroke-width="0.5" stroke="rgb(255,34,34)" stroke-linejoin="miter" stroke-linecap="butt"/><path d=" M 81 203 L 80 164 L 119 181 L 119 221 L 81 203 Z " fill="rgb(231,0,0)" stroke-width="0.5" stroke="rgb(255,34,34)" stroke-linejoin="miter" stroke-linecap="butt"/><path d=" M 44 148 L 42 107 L 80 122 L 80 164 L 44 148 Z " fill="rgb(231,0,0)" stroke-width="0.5" stroke="rgb(255,34,34)" stroke-linejoin="miter" stroke-linecap="butt"/><path d=" M 42 107 L 40 64 L 79 78 L 80 122 L 42 107 Z " fill="rgb(231,0,0)" stroke-width="0.5" stroke="rgb(255,34,34)" stroke-linejoin="miter" stroke-linecap="butt"/><path d=" M 80 164 L 80 122 L 120 138 L 119 181 L 80 164 Z " fill="rgb(231,0,0)" stroke-width="0.5" stroke="rgb(255,34,34)" stroke-linejoin="miter" stroke-linecap="butt"/><path d=" M 80 122 L 79 78 L 120 93 L 120 138 L 80 122 Z " fill="rgb(231,0,0)" stroke-width="0.5" stroke="rgb(255,34,34)" stroke-linejoin="miter" stroke-linecap="butt"/><g style="isolation:isolate"/></svg>