<svg width="208" height="224" xmlns="http://www.w3.org/2000/svg">
 <defs>
  <style>path{stroke-width:.5;fill:#999;stroke:#444}</style>
 </defs>
  <path d="m72,46l-32,17l-36,-14l32,-16l36,13z"/>
  <path d="m110,59l-31,18l-39,-14l32,-17l38,13z"/>
  <path d="m151,73l-31,19l-41,-15l31,-18l41,14z"/>
  <path d="m101,29l-29,17l-36,-13l30,-15l35,11z"/>
  <path d="m139,42l-29,17l-38,-13l29,-17l38,13z"/>
  <path d="m179,55l-28,18l-41,-14l29,-17l40,13z"/>
  <path d="m128,15l-27,14l-35,-11l28,-14l34,11z"/>
  <path d="m165,26l-26,16l-38,-13l27,-14l37,11z"/>
  <path d="m204,38l-25,17l-40,-13l26,-16l39,12z"/>
  <path d="m149,116l-29,21l0,-45l31,-19l-2,43z"/>
  <path d="m176,97l-27,19l2,-43l28,-18l-3,42z"/>
  <path d="m202,79l-26,18l3,-42l25,-17l-2,41z"/>
  <path d="m148,158l-29,22l1,-43l29,-21l-1,42z"/>
  <path d="m175,137l-27,21l1,-42l27,-19l-1,40z"/>
  <path d="m199,119l-24,18l1,-40l26,-18l-3,40z"/>
  <path d="m147,197l-28,23l0,-40l29,-22l-1,39z"/>
  <path d="m173,176l-26,21l1,-39l27,-21l-2,39z"/>
  <path d="m197,156l-24,20l2,-39l24,-18l-2,37z"/>
  <path d="m7,92l-3,-43l36,14l2,43l-35,-14z"/>
  <path d="m42,106l-2,-43l39,14l1,44l-38,-15z"/>
  <path d="m80,121l-1,-44l41,15l0,45l-40,-16z"/>
  <path d="m9,132l-2,-40l35,14l2,41l-35,-15z"/>
  <path d="m44,147l-2,-41l38,15l0,42l-36,-16z"/>
  <path d="m80,163l0,-42l40,16l-1,43l-39,-17z"/>
  <path d="m12,169l-3,-37l35,15l2,38l-34,-16z"/>
  <path d="m46,185l-2,-38l36,16l1,39l-35,-17z"/>
  <path d="m81,202l-1,-39l39,17l0,40l-38,-18z"/>
</svg>